<svg width="24" height="20" viewBox="0 0 24 20" fill="none" xmlns="http://www.w3.org/2000/svg">
<path d="M23.9002 9.117C21.4732 3.491 16.9152 0 12.0002 0C7.08518 0 2.52018 3.491 0.100182 9.117C0.0341057 9.2684 0 9.43181 0 9.597C0 9.76219 0.0341057 9.9256 0.100182 10.077C2.52018 15.7 7.07818 19.193 12.0002 19.193C16.9222 19.193 21.4772 15.702 23.9002 10.076C23.9661 9.92474 24.0001 9.76151 24.0001 9.5965C24.0001 9.43149 23.9661 9.26826 23.9002 9.117ZM12.0002 16.794C8.20018 16.794 4.60018 14.047 2.52318 9.594C4.60018 5.146 8.19418 2.4 12.0002 2.4C15.8062 2.4 19.4002 5.147 21.4772 9.6C19.4002 14.047 15.8002 16.794 12.0002 16.794ZM12.0002 4.794C11.0508 4.794 10.1228 5.07552 9.33344 5.60295C8.54409 6.13038 7.92886 6.88003 7.56556 7.75712C7.20226 8.6342 7.1072 9.59932 7.29241 10.5304C7.47762 11.4615 7.93478 12.3168 8.60607 12.9881C9.27736 13.6594 10.1326 14.1166 11.0637 14.3018C11.9949 14.487 12.96 14.3919 13.8371 14.0286C14.7141 13.6653 15.4638 13.0501 15.9912 12.2607C16.5187 11.4714 16.8002 10.5434 16.8002 9.594C16.7986 8.322 16.2922 7.10264 15.3922 6.20377C14.4922 5.30489 13.2722 4.8 12.0002 4.8V4.794ZM12.0002 12C11.5255 12 11.0615 11.8592 10.6668 11.5955C10.2721 11.3318 9.96452 10.957 9.78287 10.5184C9.60122 10.0799 9.55369 9.59734 9.6463 9.13178C9.7389 8.66623 9.96748 8.23859 10.3031 7.90294C10.6388 7.5673 11.0664 7.33872 11.532 7.24612C11.9975 7.15351 12.4801 7.20104 12.9186 7.38269C13.3572 7.56434 13.732 7.87195 13.9957 8.26663C14.2594 8.66131 14.4002 9.12533 14.4002 9.6C14.4002 10.2365 14.1473 10.847 13.6972 11.2971C13.2472 11.7471 12.6367 12 12.0002 12Z" fill="white"/>
</svg>
