<svg width="27" height="19" viewBox="0 0 27 19" fill="none" xmlns="http://www.w3.org/2000/svg">
<path fill-rule="evenodd" clip-rule="evenodd" d="M26.3 9.042C26.3 9.042 21.371 0 13.151 0C4.931 0 0 9.042 0 9.042C0 9.042 4.932 18.084 13.151 18.084C21.37 18.084 26.3 9.042 26.3 9.042ZM1.925 9.042C2.71956 10.2502 3.63348 11.3755 4.653 12.401C6.769 14.52 9.663 16.44 13.148 16.44C16.633 16.44 19.525 14.52 21.648 12.401C22.6675 11.3755 23.5814 10.2502 24.376 9.042C23.5815 7.8338 22.6675 6.70848 21.648 5.683C19.529 3.564 16.636 1.645 13.148 1.645C9.66 1.645 6.771 3.565 4.648 5.684C3.62817 6.70912 2.71391 7.8341 1.919 9.042H1.925Z" fill="white"/>
<path fill-rule="evenodd" clip-rule="evenodd" d="M13.1514 4.93309C12.3386 4.93309 11.5439 5.17414 10.868 5.62575C10.1922 6.07736 9.66537 6.71926 9.35429 7.47026C9.04322 8.22126 8.96182 9.04765 9.12041 9.84491C9.279 10.6422 9.67043 11.3745 10.2452 11.9493C10.82 12.5241 11.5524 12.9155 12.3496 13.0741C13.1469 13.2327 13.9733 13.1513 14.7243 12.8402C15.4753 12.5292 16.1172 12.0024 16.5688 11.3265C17.0204 10.6506 17.2614 9.85597 17.2614 9.04309C17.2614 7.95305 16.8284 6.90765 16.0576 6.13688C15.2869 5.36611 14.2415 4.93309 13.1514 4.93309ZM7.39844 9.04209C7.39844 7.90405 7.7359 6.79158 8.36816 5.84534C9.00042 4.8991 9.89907 4.16159 10.9505 3.72609C12.0019 3.29058 13.1588 3.17663 14.275 3.39865C15.3912 3.62067 16.4164 4.16868 17.2211 4.9734C18.0258 5.77811 18.5739 6.80337 18.7959 7.91954C19.0179 9.03571 18.9039 10.1926 18.4684 11.244C18.0329 12.2955 17.2954 13.1941 16.3492 13.8264C15.4029 14.4586 14.2905 14.7961 13.1524 14.7961C12.3968 14.7962 11.6485 14.6475 10.9503 14.3584C10.2522 14.0692 9.61779 13.6454 9.08345 13.1111C8.54912 12.5767 8.12529 11.9424 7.83617 11.2442C7.54705 10.546 7.39831 9.79775 7.39844 9.04209Z" fill="white"/>
<path d="M4 1L23 17" stroke="white" stroke-width="2"/>
</svg>
