<svg width="27" height="19" viewBox="0 0 27 19" fill="none" xmlns="http://www.w3.org/2000/svg">
<path fill-rule="evenodd" clip-rule="evenodd" d="M26.3 9.83298C24.5372 6.84582 22.0879 4.32176 19.155 2.46999C17.34 1.38057 15.2648 0.800882 13.148 0.791992C4.932 0.790992 0 9.83298 0 9.83298C0 9.83298 4.932 18.875 13.151 18.875C21.37 18.875 26.3 9.83298 26.3 9.83298ZM1.925 9.83298C2.71956 11.0412 3.63348 12.1665 4.653 13.192C6.769 15.311 9.663 17.231 13.148 17.231C16.633 17.231 19.525 15.311 21.648 13.192C22.6675 12.1665 23.5814 11.0412 24.376 9.83298C23.5815 8.62478 22.6675 7.49947 21.648 6.47399C19.529 4.35499 16.636 2.43599 13.148 2.43599C9.66 2.43599 6.771 4.35599 4.648 6.47499C3.62817 7.50011 2.71391 8.62508 1.919 9.83298H1.925Z" fill="#FF671F"/>
<path fill-rule="evenodd" clip-rule="evenodd" d="M13.1509 5.7241C12.3381 5.7241 11.5434 5.96515 10.8676 6.41676C10.1917 6.86838 9.66488 7.51027 9.3538 8.2613C9.04273 9.0123 8.96134 9.8387 9.11992 10.6359C9.27851 11.4332 9.66995 12.1655 10.2447 12.7403C10.8195 13.3151 11.5519 13.7065 12.3491 13.8651C13.1464 14.0237 13.9728 13.9423 14.7238 13.6312C15.4748 13.3202 16.1167 12.7934 16.5683 12.1175C17.0199 11.4416 17.261 10.647 17.261 9.8341C17.261 8.7441 16.8279 7.69867 16.0572 6.9279C15.2864 6.15712 14.241 5.7241 13.1509 5.7241ZM7.39795 9.8331C7.39795 8.6951 7.73542 7.58259 8.36767 6.63635C8.99993 5.69011 9.89858 4.95261 10.95 4.5171C12.0014 4.08159 13.1583 3.96765 14.2745 4.18967C15.3907 4.41169 16.4159 4.9597 17.2206 5.76441C18.0254 6.56912 18.5734 7.59439 18.7954 8.7106C19.0174 9.8267 18.9035 10.9837 18.468 12.0351C18.0324 13.0865 17.2949 13.9851 16.3487 14.6174C15.4025 15.2496 14.29 15.5871 13.1519 15.5871C12.3963 15.5872 11.648 15.4385 10.9498 15.1494C10.2517 14.8603 9.6173 14.4364 9.08296 13.9021C8.54863 13.3678 8.1248 12.7334 7.83568 12.0352C7.54656 11.3371 7.39782 10.5888 7.39795 9.8331Z" fill="#FF671F"/>
<line x1="3.64765" y1="1.23806" x2="23.6476" y2="18.2381" stroke="#FF671F" stroke-width="2"/>
</svg>
