<svg width="28" height="28" viewBox="0 0 28 28" fill="none" xmlns="http://www.w3.org/2000/svg">
<g clip-path="url(#clip0_614_6)">
<path d="M22.0001 10.0239L16.0001 4.76393C15.4501 4.27198 14.738 4 14.0001 4C13.2622 4 12.5501 4.27198 12.0001 4.76393L6.00009 10.0239C5.68246 10.308 5.42899 10.6565 5.25657 11.0462C5.08414 11.4359 4.99671 11.8578 5.00009 12.2839V21.0239C5.00009 21.8196 5.31617 22.5826 5.87877 23.1453C6.44138 23.7079 7.20445 24.0239 8.00009 24.0239H20.0001C20.7957 24.0239 21.5588 23.7079 22.1214 23.1453C22.684 22.5826 23.0001 21.8196 23.0001 21.0239V12.2739C23.0021 11.8495 22.9139 11.4295 22.7416 11.0416C22.5692 10.6538 22.3165 10.3069 22.0001 10.0239ZM16.0001 22.0239H12.0001V17.0239C12.0001 16.7587 12.1055 16.5044 12.293 16.3168C12.4805 16.1293 12.7349 16.0239 13.0001 16.0239H15.0001C15.2653 16.0239 15.5197 16.1293 15.7072 16.3168C15.8947 16.5044 16.0001 16.7587 16.0001 17.0239V22.0239ZM21.0001 21.0239C21.0001 21.2891 20.8947 21.5435 20.7072 21.731C20.5197 21.9186 20.2653 22.0239 20.0001 22.0239H18.0001V17.0239C18.0001 16.2283 17.684 15.4652 17.1214 14.9026C16.5588 14.34 15.7957 14.0239 15.0001 14.0239H13.0001C12.2044 14.0239 11.4414 14.34 10.8788 14.9026C10.3162 15.4652 10.0001 16.2283 10.0001 17.0239V22.0239H8.00009C7.73488 22.0239 7.48052 21.9186 7.29299 21.731C7.10545 21.5435 7.00009 21.2891 7.00009 21.0239V12.2739C7.00027 12.1319 7.03069 11.9916 7.08931 11.8623C7.14794 11.733 7.23343 11.6176 7.3401 11.5239L13.3401 6.27393C13.5226 6.11361 13.7572 6.0252 14.0001 6.0252C14.243 6.0252 14.4776 6.11361 14.6601 6.27393L20.6601 11.5239C20.7668 11.6176 20.8523 11.733 20.9109 11.8623C20.9695 11.9916 20.9999 12.1319 21.0001 12.2739V21.0239Z" fill="#9F9F9F"/>
</g>
<defs>
<clipPath id="clip0_614_6">
<rect width="28" height="28" fill="white"/>
</clipPath>
</defs>
</svg>
